<svg id="Слой_1" data-name="Слой 1" xmlns="http://www.w3.org/2000/svg" width="160" height="127.77" viewBox="0 0 160 127.77"><title>moneyБезымянный-4</title><path d="M0,41.35c0-7.87,16.68-14.24,37.24-14.24S74.5,33.49,74.5,41.35,57.82,55.6,37.25,55.6,0,49.22,0,41.35ZM122.76,28.49c20.57,0,37.24-6.38,37.24-14.24S143.32,0,122.76,0,85.51,6.39,85.51,14.25,102.19,28.49,122.76,28.49Zm0,12.81c20.57,0,37.24-6.38,37.24-14.24a6.18,6.18,0,0,0-1-3.22c-3.81,6.3-18.56,11-36.23,11s-32.42-4.72-36.26-11a6.14,6.14,0,0,0-1,3.22C85.5,34.93,102.18,41.3,122.75,41.3Zm0,14.91C143.31,56.21,160,49.84,160,42a6.18,6.18,0,0,0-1-3.22c-3.81,6.31-18.56,11-36.23,11s-32.42-4.71-36.26-11a6.14,6.14,0,0,0-1,3.22C85.5,49.84,102.18,56.21,122.75,56.21ZM37.25,68.4C57.82,68.4,74.5,62,74.5,54.16a6.18,6.18,0,0,0-1-3.22c-3.83,6.31-18.57,11-36.25,11S4.82,57.25,1,50.93a6.26,6.26,0,0,0-1,3.22C0,62,16.68,68.4,37.25,68.4Zm0,8.46c-17.68,0-32.42-4.71-36.25-11a6.23,6.23,0,0,0-1,3.22c0,7.88,16.66,14.24,37.24,14.24a89.55,89.55,0,0,0,14.21-1.09,31,31,0,0,1,22.4-10.61,5.89,5.89,0,0,0,.64-2.55,6.15,6.15,0,0,0-1-3.22C69.67,72.15,54.93,76.86,37.25,76.86ZM1,81.29a6.23,6.23,0,0,0-1,3.22c0,7.87,16.68,14.24,37.24,14.24,2.34,0,4.61-.1,6.83-.25a30.88,30.88,0,0,1,1.64-6.58c-2.72.25-5.55.39-8.47.39C19.58,92.3,4.82,87.59,1,81.29Zm121.75-9.64c20.57,0,37.24-6.37,37.24-14.23a6.18,6.18,0,0,0-1-3.22c-3.81,6.31-18.56,11-36.23,11s-32.42-4.72-36.26-11a6.16,6.16,0,0,0-1,3.22C85.5,65.27,102.18,71.65,122.75,71.65Zm0,8.33c-17.67,0-32.42-4.71-36.26-11a6.16,6.16,0,0,0-1,3.22,6,6,0,0,0,.19,1.42A31.22,31.22,0,0,1,99,83.14a80.92,80.92,0,0,0,23.8,3.28C143.34,86.41,160,80,160,72.17a6.21,6.21,0,0,0-1-3.22C155.18,75.27,140.42,80,122.76,80Zm0,15.42a87,87,0,0,1-18.23-1.83,30.79,30.79,0,0,1,1.23,6.69,88,88,0,0,0,17,1.58c20.58,0,37.24-6.37,37.24-14.23a6.21,6.21,0,0,0-1-3.23C155.18,90.69,140.42,95.4,122.76,95.4ZM74.7,77.95a24.91,24.91,0,1,0,24.91,24.91A24.91,24.91,0,0,0,74.7,77.95Z" transform="translate(0 0)" style="fill:#fff"/></svg>