<svg id="Слой_1" data-name="Слой 1" xmlns="http://www.w3.org/2000/svg" width="160" height="100.81" viewBox="0 0 160 100.81"><title>speedБезымянный-3</title><path d="M143.72,86.66H16.28a2.65,2.65,0,0,0,0,5.31H143.72a2.65,2.65,0,1,0,0-5.31Z"/><path d="M122.45,95.5H37.55a2.65,2.65,0,0,0,0,5.31h84.89a2.65,2.65,0,0,0,0-5.31Z"/><path d="M136.57,23.43A80,80,0,0,0,0,80a2.65,2.65,0,0,0,2.65,2.65H157.35A2.65,2.65,0,0,0,160,80a79.48,79.48,0,0,0-23.43-56.57Zm-32.45,36.2a31.44,31.44,0,0,1,7.35,17.71H86.41l17.71-17.71ZM78.9,77.35H48.53a31.56,31.56,0,0,1,51.84-21.47Zm37.89,0a36.73,36.73,0,0,0-8.91-21.48l7-7a2.65,2.65,0,0,0-3.75-3.75l-7,7A36.87,36.87,0,0,0,43.21,77.35H13.12a66.77,66.77,0,0,1,1.59-12.1L23,67.46a2.65,2.65,0,0,0,1.37-5.13l-8.26-2.21a66.55,66.55,0,0,1,4.68-11.26l7.39,4.27a2.65,2.65,0,1,0,2.65-4.6l-7.39-4.26a67.34,67.34,0,0,1,7.43-9.66l6,6a2.65,2.65,0,1,0,3.75-3.75l-6-6a67.37,67.37,0,0,1,9.67-7.43l4.27,7.38a2.65,2.65,0,1,0,4.59-2.65l-4.27-7.39a66.54,66.54,0,0,1,11.27-4.68l2.21,8.25A2.65,2.65,0,1,0,67.47,23L65.25,14.7a66.78,66.78,0,0,1,12.1-1.58v8.55a2.65,2.65,0,0,0,5.31,0V13.12a66.74,66.74,0,0,1,12.1,1.58L92.54,23a2.65,2.65,0,1,0,5.12,1.37l2.21-8.25a66.56,66.56,0,0,1,11.27,4.68l-4.27,7.39a2.65,2.65,0,1,0,4.59,2.65l4.27-7.38a67.37,67.37,0,0,1,9.66,7.43l-6,6a2.65,2.65,0,0,0,3.75,3.75l6-6a67.36,67.36,0,0,1,7.43,9.66l-7.38,4.26a2.65,2.65,0,1,0,2.65,4.6l7.39-4.27a66.52,66.52,0,0,1,4.68,11.27l-8.25,2.21A2.65,2.65,0,1,0,137,67.46l8.25-2.21a66.76,66.76,0,0,1,1.59,12.1H116.79Zm35.39,0a72.24,72.24,0,0,0-144.37,0H5.35a74.7,74.7,0,0,1,149.3,0Z"/></svg>